<svg width="202" height="21" viewBox="0 0 202 21" fill="none" xmlns="http://www.w3.org/2000/svg">
<g clip-path="url(#clip0_1_249)">
<path d="M13.25 1H2.75C1.78729 1 1 1.78812 1 2.75V13.25C1 14.2135 1.78729 15 2.75 15H8.06094V9.97977H6.38341V7.79329H8.06094V6.698C8.06094 5.00894 9.30694 3.68635 10.898 3.68635H12.4438V6.15529H11.0611C10.7004 6.15529 10.5925 6.36282 10.5925 6.65024V7.79329H12.4438V9.97977H10.5925V15H13.25C14.2135 15 15 14.2135 15 13.25V2.75C15 1.78812 14.2135 1 13.25 1Z" fill="black"/>
</g>
<path d="M24.952 13.051C24.952 12.8923 24.9577 12.7563 24.969 12.643C24.9803 12.5183 25.003 12.4107 25.037 12.32C25.343 12.2973 25.581 12.2463 25.751 12.167C25.921 12.0763 26.04 11.929 26.108 11.725C26.176 11.5097 26.21 11.215 26.21 10.841V3.667C26.21 3.28167 26.176 2.987 26.108 2.783C26.04 2.579 25.921 2.43167 25.751 2.341C25.581 2.25033 25.343 2.19933 25.037 2.188C25.003 2.09733 24.9803 1.98967 24.969 1.865C24.9577 1.74033 24.952 1.60433 24.952 1.457C25.1447 1.46833 25.36 1.47967 25.598 1.491C25.836 1.491 26.0853 1.49667 26.346 1.508C26.618 1.508 26.8787 1.508 27.128 1.508C27.3773 1.508 27.604 1.508 27.808 1.508V10.501C27.808 10.9883 27.859 11.3623 27.961 11.623C28.063 11.8723 28.2273 12.048 28.454 12.15C28.6807 12.2407 28.9697 12.2973 29.321 12.32C29.355 12.4107 29.3777 12.5183 29.389 12.643C29.4003 12.7563 29.406 12.8923 29.406 13.051C29.236 13.0397 29.032 13.0283 28.794 13.017C28.5673 13.017 28.3237 13.0113 28.063 13C27.8023 13 27.536 13 27.264 13C26.8673 13 26.4367 13 25.972 13C25.5187 13.0113 25.1787 13.0283 24.952 13.051ZM31.684 9.515C31.5367 9.515 31.4007 9.50933 31.276 9.498C31.1513 9.48667 31.0267 9.464 30.902 9.43C30.8567 8.84067 30.698 8.444 30.426 8.24C30.1653 8.02467 29.6837 7.917 28.981 7.917H27.757V7.186H28.981C29.6837 7.186 30.171 7.09533 30.443 6.914C30.715 6.73267 30.8567 6.36433 30.868 5.809C31.0153 5.76367 31.1513 5.73533 31.276 5.724C31.4007 5.70133 31.5367 5.69 31.684 5.69C31.6727 5.97333 31.6613 6.27933 31.65 6.608C31.65 6.93667 31.65 7.24833 31.65 7.543C31.65 7.83767 31.65 8.16633 31.65 8.529C31.6613 8.89167 31.6727 9.22033 31.684 9.515ZM32.109 4.347C32.0863 3.99567 31.9957 3.65567 31.837 3.327C31.6783 2.99833 31.4007 2.72633 31.004 2.511C30.6187 2.29567 30.0577 2.188 29.321 2.188H27.383L27.757 1.508C28.6523 1.508 29.4173 1.508 30.052 1.508C30.698 1.49667 31.225 1.48533 31.633 1.474C32.041 1.46267 32.3357 1.457 32.517 1.457C32.5397 1.70633 32.568 1.99533 32.602 2.324C32.636 2.65267 32.6757 2.97567 32.721 3.293C32.7663 3.61033 32.8173 3.89367 32.874 4.143C32.7833 4.22233 32.67 4.279 32.534 4.313C32.4093 4.33567 32.2677 4.347 32.109 4.347ZM38.5136 13.153C38.389 13.0963 38.287 12.9943 38.2076 12.847C38.1396 12.6997 38.1056 12.4673 38.1056 12.15C38.1056 12.048 38.1113 11.929 38.1226 11.793C38.134 11.6457 38.1566 11.5153 38.1906 11.402H38.2246C38.1906 11.5833 38.1113 11.7817 37.9866 11.997C37.8733 12.201 37.7203 12.3823 37.5276 12.541C37.335 12.711 37.0913 12.8527 36.7966 12.966C36.502 13.068 36.145 13.119 35.7256 13.119C35.0116 13.119 34.4676 12.9603 34.0936 12.643C33.7196 12.3143 33.5326 11.8723 33.5326 11.317C33.5326 10.875 33.6346 10.501 33.8386 10.195C34.054 9.87767 34.326 9.617 34.6546 9.413C34.9946 9.19767 35.3573 9.02767 35.7426 8.903C36.1393 8.77833 36.5246 8.682 36.8986 8.614C37.2726 8.546 37.6013 8.48933 37.8846 8.444C37.8846 7.97933 37.8733 7.61667 37.8506 7.356C37.8393 7.09533 37.8053 6.89133 37.7486 6.744C37.7033 6.58533 37.6296 6.44933 37.5276 6.336C37.3916 6.166 37.233 6.04133 37.0516 5.962C36.8816 5.87133 36.689 5.826 36.4736 5.826C36.0996 5.826 35.805 5.945 35.5896 6.183C35.3743 6.40967 35.2213 6.676 35.1306 6.982C35.04 7.288 34.989 7.56 34.9776 7.798C34.853 7.798 34.6943 7.79233 34.5016 7.781C34.3203 7.75833 34.1843 7.72433 34.0936 7.679C34.1163 7.39567 34.122 7.07833 34.1106 6.727C34.0993 6.37567 34.0653 6.07533 34.0086 5.826C34.4733 5.588 34.9606 5.401 35.4706 5.265C35.992 5.129 36.468 5.061 36.8986 5.061C37.318 5.061 37.675 5.12333 37.9696 5.248C38.2756 5.36133 38.5193 5.51433 38.7006 5.707C38.9953 5.99033 39.188 6.36433 39.2786 6.829C39.3693 7.28233 39.4146 7.88867 39.4146 8.648V10.518C39.4146 10.8353 39.4373 11.0903 39.4826 11.283C39.5393 11.4643 39.6413 11.6003 39.7886 11.691C39.936 11.7703 40.1626 11.8213 40.4686 11.844C40.4686 11.9573 40.463 12.0877 40.4516 12.235C40.4403 12.371 40.412 12.5013 40.3666 12.626C40.0833 12.6373 39.766 12.694 39.4146 12.796C39.0746 12.8867 38.7743 13.0057 38.5136 13.153ZM36.2016 12.184C36.451 12.184 36.706 12.1047 36.9666 11.946C37.2273 11.776 37.4426 11.5153 37.6126 11.164C37.794 10.8127 37.8846 10.3537 37.8846 9.787V9.141C37.6013 9.175 37.301 9.226 36.9836 9.294C36.6663 9.35067 36.3716 9.44133 36.0996 9.566C35.8276 9.69067 35.6066 9.86633 35.4366 10.093C35.2666 10.3083 35.1816 10.603 35.1816 10.977C35.1816 11.3963 35.2836 11.7023 35.4876 11.895C35.6916 12.0877 35.9296 12.184 36.2016 12.184ZM48.1534 11.674C47.8474 12.1613 47.4677 12.5297 47.0144 12.779C46.5611 13.0283 46.0114 13.153 45.3654 13.153C44.7874 13.153 44.2264 13.0057 43.6824 12.711C43.1497 12.405 42.7077 11.9573 42.3564 11.368C42.0051 10.7673 41.8294 10.025 41.8294 9.141C41.8294 8.461 41.9654 7.80933 42.2374 7.186C42.5094 6.56267 42.9061 6.05267 43.4274 5.656C43.9601 5.25933 44.6061 5.061 45.3654 5.061C45.8867 5.061 46.3627 5.12333 46.7934 5.248C47.2354 5.37267 47.6151 5.56533 47.9324 5.826C47.8871 6.15467 47.8531 6.47767 47.8304 6.795C47.8191 7.11233 47.8134 7.43533 47.8134 7.764C47.7227 7.80933 47.5981 7.84333 47.4394 7.866C47.2921 7.88867 47.1561 7.9 47.0314 7.9C46.9634 7.24267 46.7707 6.73833 46.4534 6.387C46.1361 6.03567 45.7281 5.86 45.2294 5.86C44.6741 5.86 44.2321 6.12067 43.9034 6.642C43.5747 7.16333 43.4104 7.91133 43.4104 8.886C43.4104 9.45267 43.5011 9.991 43.6824 10.501C43.8751 10.9997 44.1527 11.4077 44.5154 11.725C44.8781 12.031 45.3201 12.184 45.8414 12.184C46.2041 12.184 46.5441 12.099 46.8614 11.929C47.1901 11.759 47.4791 11.5153 47.7284 11.198C47.8191 11.2433 47.9041 11.3113 47.9834 11.402C48.0627 11.4813 48.1194 11.572 48.1534 11.674ZM53.0369 13.153C52.2323 13.153 51.5636 12.9717 51.0309 12.609C50.4983 12.2463 50.0959 11.759 49.8239 11.147C49.5633 10.5237 49.4329 9.84367 49.4329 9.107C49.4329 8.38167 49.5746 7.713 49.8579 7.101C50.1413 6.489 50.5436 5.996 51.0649 5.622C51.5976 5.248 52.2266 5.061 52.9519 5.061C53.6886 5.061 54.2779 5.21967 54.7199 5.537C55.1733 5.85433 55.5076 6.27933 55.7229 6.812C55.9496 7.34467 56.0856 7.934 56.1309 8.58C56.0856 8.80667 56.0006 8.99933 55.8759 9.158C55.6833 9.158 55.3943 9.158 55.0089 9.158C54.6236 9.158 54.1873 9.16367 53.6999 9.175C53.2126 9.175 52.7139 9.18633 52.2039 9.209C51.6939 9.22033 51.2123 9.23733 50.7589 9.26V8.393H54.3629C54.3629 7.645 54.2269 7.03867 53.9549 6.574C53.6829 6.10933 53.2976 5.877 52.7989 5.877C52.5269 5.877 52.2606 5.962 51.9999 6.132C51.7393 6.29067 51.5239 6.57967 51.3539 6.999C51.1839 7.407 51.0989 7.99067 51.0989 8.75C51.0989 9.30533 51.1669 9.84933 51.3029 10.382C51.4503 10.9033 51.6996 11.3397 52.0509 11.691C52.4136 12.031 52.9236 12.201 53.5809 12.201C53.9549 12.201 54.3233 12.116 54.6859 11.946C55.0486 11.776 55.3716 11.5323 55.6549 11.215C55.7456 11.2603 55.8306 11.3397 55.9099 11.453C56.0006 11.555 56.0516 11.6513 56.0629 11.742C55.6776 12.252 55.2299 12.6147 54.7199 12.83C54.2213 13.0453 53.6603 13.153 53.0369 13.153ZM59.5417 11.538C59.7684 11.776 60.012 11.9743 60.2727 12.133C60.5447 12.2917 60.879 12.371 61.2757 12.371C61.5137 12.371 61.7687 12.3257 62.0407 12.235C62.324 12.133 62.596 11.963 62.8567 11.725C63.1174 11.487 63.327 11.1527 63.4857 10.722C63.6557 10.2913 63.7407 9.736 63.7407 9.056C63.7407 8.33067 63.633 7.75833 63.4177 7.339C63.2024 6.90833 62.9474 6.60233 62.6527 6.421C62.358 6.22833 62.086 6.132 61.8367 6.132C61.508 6.132 61.185 6.23967 60.8677 6.455C60.5504 6.659 60.2897 6.999 60.0857 7.475C59.8817 7.951 59.7797 8.58567 59.7797 9.379V12.082L59.5417 11.538ZM61.1907 13.153C60.6807 13.153 60.216 13.102 59.7967 13C59.3774 12.898 59.009 12.762 58.6917 12.592C58.3744 12.4107 58.1024 12.2123 57.8757 11.997C58.0004 11.8383 58.091 11.606 58.1477 11.3C58.2157 10.994 58.2497 10.5067 58.2497 9.838V3.225C58.2497 2.953 58.2214 2.732 58.1647 2.562C58.1194 2.38067 58.006 2.24467 57.8247 2.154C57.6434 2.06333 57.36 2.018 56.9747 2.018C56.9747 1.89333 56.986 1.78 57.0087 1.678C57.0314 1.576 57.071 1.47967 57.1277 1.389C57.2977 1.389 57.5357 1.36067 57.8417 1.304C58.159 1.24733 58.465 1.17367 58.7597 1.083C59.0544 0.992333 59.2697 0.901666 59.4057 0.811C59.5077 0.844999 59.5927 0.912999 59.6607 1.015C59.74 1.117 59.7797 1.27567 59.7797 1.491V5.928C59.7797 6.132 59.7684 6.30767 59.7457 6.455C59.723 6.591 59.7004 6.72133 59.6777 6.846L59.6097 8.359L59.2867 7.577C59.434 7.21433 59.5587 6.93667 59.6607 6.744C59.774 6.55133 59.859 6.40967 59.9157 6.319C60.0177 6.149 60.1764 5.96767 60.3917 5.775C60.6184 5.571 60.8904 5.401 61.2077 5.265C61.525 5.129 61.8707 5.061 62.2447 5.061C62.9134 5.061 63.48 5.197 63.9447 5.469C64.4207 5.72967 64.7834 6.13767 65.0327 6.693C65.2934 7.24833 65.4237 7.96233 65.4237 8.835C65.4237 9.62833 65.248 10.3537 64.8967 11.011C64.5454 11.657 64.0524 12.1783 63.4177 12.575C62.783 12.9603 62.0407 13.153 61.1907 13.153ZM70.6236 13.153C69.8529 13.153 69.1786 12.9887 68.6006 12.66C68.0226 12.32 67.5749 11.8497 67.2576 11.249C66.9402 10.637 66.7816 9.923 66.7816 9.107C66.7816 8.33633 66.9459 7.645 67.2746 7.033C67.6032 6.421 68.0566 5.93933 68.6346 5.588C69.2126 5.23667 69.8756 5.061 70.6236 5.061C71.4282 5.061 72.1139 5.231 72.6806 5.571C73.2586 5.911 73.7006 6.387 74.0066 6.999C74.3126 7.59967 74.4656 8.30233 74.4656 9.107C74.4656 9.87767 74.3012 10.569 73.9726 11.181C73.6552 11.793 73.2076 12.2747 72.6296 12.626C72.0629 12.9773 71.3942 13.153 70.6236 13.153ZM70.7596 12.337C71.4396 12.337 71.9439 12.0593 72.2726 11.504C72.6012 10.9373 72.7656 10.2063 72.7656 9.311C72.7656 8.60833 72.6579 8.002 72.4426 7.492C72.2386 6.97067 71.9609 6.574 71.6096 6.302C71.2582 6.01867 70.8729 5.877 70.4536 5.877C69.7962 5.877 69.3032 6.14333 68.9746 6.676C68.6572 7.20867 68.4986 7.9 68.4986 8.75C68.4986 9.50933 68.5892 10.161 68.7706 10.705C68.9632 11.2377 69.2296 11.6457 69.5696 11.929C69.9096 12.201 70.3062 12.337 70.7596 12.337ZM79.6714 13.153C78.9007 13.153 78.2264 12.9887 77.6484 12.66C77.0704 12.32 76.6227 11.8497 76.3054 11.249C75.9881 10.637 75.8294 9.923 75.8294 9.107C75.8294 8.33633 75.9937 7.645 76.3224 7.033C76.6511 6.421 77.1044 5.93933 77.6824 5.588C78.2604 5.23667 78.9234 5.061 79.6714 5.061C80.4761 5.061 81.1617 5.231 81.7284 5.571C82.3064 5.911 82.7484 6.387 83.0544 6.999C83.3604 7.59967 83.5134 8.30233 83.5134 9.107C83.5134 9.87767 83.3491 10.569 83.0204 11.181C82.7031 11.793 82.2554 12.2747 81.6774 12.626C81.1107 12.9773 80.4421 13.153 79.6714 13.153ZM79.8074 12.337C80.4874 12.337 80.9917 12.0593 81.3204 11.504C81.6491 10.9373 81.8134 10.2063 81.8134 9.311C81.8134 8.60833 81.7057 8.002 81.4904 7.492C81.2864 6.97067 81.0087 6.574 80.6574 6.302C80.3061 6.01867 79.9207 5.877 79.5014 5.877C78.8441 5.877 78.3511 6.14333 78.0224 6.676C77.7051 7.20867 77.5464 7.9 77.5464 8.75C77.5464 9.50933 77.6371 10.161 77.8184 10.705C78.0111 11.2377 78.2774 11.6457 78.6174 11.929C78.9574 12.201 79.3541 12.337 79.8074 12.337ZM84.6433 13.051C84.6433 12.9377 84.6489 12.8187 84.6603 12.694C84.6716 12.558 84.6943 12.4333 84.7283 12.32C85.1816 12.32 85.4876 12.218 85.6463 12.014C85.8163 11.7987 85.9013 11.4077 85.9013 10.841V3.225C85.9013 2.953 85.8729 2.732 85.8163 2.562C85.7709 2.38067 85.6576 2.24467 85.4763 2.154C85.2949 2.06333 85.0116 2.018 84.6263 2.018C84.6263 1.89333 84.6376 1.78 84.6603 1.678C84.6829 1.576 84.7226 1.47967 84.7793 1.389C84.9493 1.389 85.1873 1.36067 85.4933 1.304C85.8106 1.24733 86.1166 1.17367 86.4113 1.083C86.7059 0.992333 86.9213 0.901666 87.0573 0.811C87.1593 0.844999 87.2443 0.912999 87.3123 1.015C87.3916 1.117 87.4313 1.27567 87.4313 1.491V10.841C87.4313 11.4077 87.5049 11.7987 87.6523 12.014C87.8109 12.218 88.0716 12.32 88.4343 12.32C88.4683 12.4333 88.4909 12.5637 88.5023 12.711C88.5136 12.8583 88.5192 12.9717 88.5192 13.051C88.2246 13.0283 87.9129 13.0113 87.5843 13C87.2556 13 86.9269 13 86.5983 13C86.3829 13 86.1563 13 85.9183 13C85.6916 13.0113 85.4706 13.017 85.2553 13.017C85.0399 13.0283 84.8359 13.0397 84.6433 13.051ZM90.6953 13.153C90.5026 12.8583 90.2703 12.5297 89.9983 12.167C89.7263 11.8043 89.4316 11.4303 89.1143 11.045C88.7969 10.6483 88.4683 10.2687 88.1283 9.906C87.7996 9.532 87.4823 9.19767 87.1763 8.903L88.6893 7.509C89.0746 7.15767 89.3523 6.87433 89.5223 6.659C89.6923 6.43233 89.7773 6.26233 89.7773 6.149C89.7773 6.05833 89.7319 5.99033 89.6413 5.945C89.5619 5.89967 89.4429 5.877 89.2843 5.877C89.2503 5.76367 89.2219 5.65033 89.1993 5.537C89.1879 5.42367 89.1823 5.30467 89.1823 5.18C89.4316 5.19133 89.6583 5.20267 89.8623 5.214C90.0776 5.214 90.2759 5.214 90.4573 5.214C90.6386 5.214 90.8029 5.214 90.9503 5.214C91.1429 5.214 91.3809 5.214 91.6643 5.214C91.9476 5.20267 92.2423 5.19133 92.5483 5.18C92.5483 5.29333 92.5369 5.418 92.5143 5.554C92.5029 5.67867 92.4746 5.792 92.4293 5.894C92.2139 5.894 91.9986 5.928 91.7833 5.996C91.5793 6.064 91.3583 6.17167 91.1203 6.319C90.8936 6.46633 90.6386 6.67033 90.3553 6.931L88.4853 8.631L88.4513 8.087C88.8479 8.495 89.2559 8.937 89.6753 9.413C90.0946 9.87767 90.5989 10.4727 91.1883 11.198C91.4149 11.47 91.6076 11.6797 91.7663 11.827C91.9363 11.9743 92.1119 12.082 92.2933 12.15C92.4746 12.2067 92.6956 12.2463 92.9563 12.269C92.9563 12.4277 92.9506 12.5693 92.9393 12.694C92.9279 12.8073 92.9053 12.9093 92.8713 13C92.5993 13 92.3443 13.0057 92.1063 13.017C91.8683 13.0283 91.6359 13.0397 91.4093 13.051C91.1826 13.0737 90.9446 13.1077 90.6953 13.153Z" fill="#212121"/>
<defs>
<clipPath id="clip0_1_249">
<rect width="14" height="14" fill="white" transform="translate(1 1)"/>
</clipPath>
</defs>
</svg>
