<svg width="202" height="21" viewBox="0 0 202 21" fill="none" xmlns="http://www.w3.org/2000/svg">
<g clip-path="url(#clip0_1_253)">
<path d="M4.17059 2.49635C4.17059 3.32318 3.56035 3.99271 2.55565 3.99271C1.61024 3.99353 1 3.324 1 2.49635C1 1.64976 1.63 1 2.59518 1C3.55953 1 4.15082 1.64976 4.17059 2.49635ZM1.07906 14.804V5.17447H4.07176V14.8032H1.07906V14.804Z" fill="black"/>
<path d="M5.86296 8.24685C5.86296 7.04532 5.82426 6.04144 5.78473 5.17508H8.38379L8.52214 6.51414H8.58061C8.97426 5.88332 9.93943 4.9585 11.5536 4.9585C13.5226 4.95767 15 6.27697 15 9.1132V14.8038H12.0065V9.46732C12.0065 8.22708 11.5741 7.3805 10.4904 7.3805C9.66273 7.3805 9.17108 7.9512 8.95532 8.50297C8.87543 8.69979 8.85649 8.97567 8.85649 9.25073V14.8038H5.86296V8.24685Z" fill="black"/>
</g>
<path d="M29.457 12.235C30.0917 12.235 30.5903 12.167 30.953 12.031C31.3157 11.895 31.6047 11.6683 31.82 11.351C32.0467 11.0337 32.2507 10.6143 32.432 10.093C32.602 10.1383 32.7437 10.195 32.857 10.263C32.9703 10.3197 33.078 10.399 33.18 10.501C33.0553 10.8863 32.9477 11.3057 32.857 11.759C32.7777 12.2123 32.7097 12.6373 32.653 13.034C32.4377 13.0227 32.1487 13.017 31.786 13.017C31.4347 13.017 31.0437 13.0113 30.613 13C30.1937 13 29.7743 13 29.355 13C29.0377 13 28.6693 13 28.25 13C27.842 13 27.4227 13 26.992 13C26.5727 13.0113 26.1817 13.017 25.819 13.017C25.4563 13.0283 25.1673 13.0397 24.952 13.051C24.952 12.8923 24.9577 12.7563 24.969 12.643C24.9803 12.5183 25.003 12.4107 25.037 12.32C25.343 12.2973 25.581 12.2407 25.751 12.15C25.921 12.0593 26.04 11.9007 26.108 11.674C26.1873 11.436 26.227 11.096 26.227 10.654V3.667C26.227 3.28167 26.193 2.987 26.125 2.783C26.057 2.579 25.938 2.43167 25.768 2.341C25.598 2.25033 25.36 2.19933 25.054 2.188C25.02 2.09733 24.9973 1.98967 24.986 1.865C24.9747 1.729 24.969 1.593 24.969 1.457C25.1957 1.46833 25.4337 1.47967 25.683 1.491C25.9437 1.491 26.193 1.49667 26.431 1.508C26.669 1.508 26.8673 1.508 27.026 1.508C27.2753 1.508 27.5133 1.508 27.74 1.508C27.9667 1.49667 28.1877 1.491 28.403 1.491C28.6297 1.47967 28.8563 1.46833 29.083 1.457C29.083 1.60433 29.0773 1.74033 29.066 1.865C29.0547 1.98967 29.032 2.09733 28.998 2.188C28.7033 2.19933 28.4653 2.25033 28.284 2.341C28.114 2.43167 27.995 2.58467 27.927 2.8C27.859 3.01533 27.825 3.32133 27.825 3.718V10.654C27.825 11.0733 27.8647 11.3963 27.944 11.623C28.0233 11.8497 28.1707 12.0083 28.386 12.099C28.6127 12.1897 28.9357 12.235 29.355 12.235H29.457ZM34.1417 13.051C34.1417 12.9377 34.1474 12.8187 34.1587 12.694C34.17 12.558 34.1927 12.4333 34.2267 12.32C34.68 12.32 34.986 12.218 35.1447 12.014C35.3147 11.7987 35.3997 11.4077 35.3997 10.841V7.475C35.3997 7.203 35.3714 6.982 35.3147 6.812C35.2694 6.63067 35.156 6.49467 34.9747 6.404C34.7934 6.31333 34.51 6.268 34.1247 6.268C34.1247 6.14333 34.136 6.03 34.1587 5.928C34.1814 5.826 34.221 5.72967 34.2777 5.639C34.4477 5.639 34.6857 5.61067 34.9917 5.554C35.309 5.49733 35.615 5.42367 35.9097 5.333C36.2044 5.24233 36.4197 5.15167 36.5557 5.061C36.6577 5.095 36.7427 5.163 36.8107 5.265C36.89 5.367 36.9297 5.52567 36.9297 5.741V10.841C36.9297 11.4077 37.0034 11.7987 37.1507 12.014C37.3094 12.218 37.57 12.32 37.9327 12.32C37.9667 12.4333 37.9894 12.5637 38.0007 12.711C38.012 12.8583 38.0177 12.9717 38.0177 13.051C37.825 13.0397 37.621 13.0283 37.4057 13.017C37.1904 13.017 36.9694 13.0113 36.7427 13C36.5274 13 36.312 13 36.0967 13C35.8814 13 35.6547 13 35.4167 13C35.19 13.0113 34.969 13.017 34.7537 13.017C34.5384 13.0283 34.3344 13.0397 34.1417 13.051ZM36.0287 3.14C35.7454 3.14 35.5074 3.04367 35.3147 2.851C35.122 2.65833 35.0257 2.426 35.0257 2.154C35.0257 1.848 35.1277 1.59867 35.3317 1.406C35.5357 1.21333 35.768 1.117 36.0287 1.117C36.3347 1.117 36.5784 1.21333 36.7597 1.406C36.9524 1.59867 37.0487 1.848 37.0487 2.154C37.0487 2.41467 36.9467 2.647 36.7427 2.851C36.55 3.04367 36.312 3.14 36.0287 3.14ZM40.513 9.362V7.475C40.513 7.203 40.4846 6.982 40.428 6.812C40.3713 6.642 40.2523 6.51167 40.071 6.421C39.8896 6.33033 39.612 6.27933 39.238 6.268C39.238 6.14333 39.2493 6.03 39.272 5.928C39.2946 5.826 39.3343 5.72967 39.391 5.639C39.7423 5.61633 40.1446 5.54833 40.598 5.435C41.0513 5.32167 41.4083 5.197 41.669 5.061C41.771 5.095 41.856 5.16867 41.924 5.282C42.0033 5.384 42.043 5.55967 42.043 5.809L40.513 9.362ZM47.075 10.841C47.075 11.4303 47.1543 11.827 47.313 12.031C47.483 12.2237 47.738 12.32 48.078 12.32C48.112 12.422 48.1346 12.5297 48.146 12.643C48.1573 12.7563 48.163 12.8923 48.163 13.051C47.9136 13.0283 47.6303 13.0113 47.313 13C46.9956 13 46.6613 13 46.31 13C46.0833 13 45.8453 13 45.596 13C45.3466 13.0113 45.1086 13.017 44.882 13.017C44.6666 13.0283 44.4683 13.0397 44.287 13.051C44.287 12.8923 44.2926 12.7563 44.304 12.643C44.3153 12.5183 44.338 12.4107 44.372 12.32C44.78 12.32 45.0746 12.218 45.256 12.014C45.4486 11.7987 45.545 11.4077 45.545 10.841V8.257C45.545 7.45233 45.3976 6.90833 45.103 6.625C44.8083 6.33033 44.4286 6.183 43.964 6.183C43.6693 6.183 43.3746 6.27933 43.08 6.472C42.7853 6.65333 42.536 6.95367 42.332 7.373C42.1393 7.781 42.043 8.33067 42.043 9.022V10.841C42.043 11.4077 42.128 11.7987 42.298 12.014C42.468 12.218 42.774 12.32 43.216 12.32C43.25 12.422 43.2726 12.5297 43.284 12.643C43.2953 12.7563 43.301 12.8923 43.301 13.051C43.1423 13.0397 42.9496 13.0283 42.723 13.017C42.4963 13.017 42.2583 13.0113 42.009 13C41.7596 13 41.516 13 41.278 13C41.0513 13 40.8133 13 40.564 13C40.3146 13.0113 40.0766 13.017 39.85 13.017C39.6233 13.0283 39.425 13.0397 39.255 13.051C39.255 12.8923 39.2606 12.7563 39.272 12.643C39.2833 12.5183 39.306 12.4107 39.34 12.32C39.782 12.32 40.088 12.218 40.258 12.014C40.428 11.7987 40.513 11.4077 40.513 10.841V7.475L42.043 5.809C42.043 5.945 42.0373 6.098 42.026 6.268C42.0146 6.438 41.9806 6.61933 41.924 6.812C41.958 6.75533 41.992 6.693 42.026 6.625C42.06 6.54567 42.111 6.46067 42.179 6.37C42.3716 6.10933 42.6776 5.843 43.097 5.571C43.5276 5.28767 44.0433 5.146 44.644 5.146C45.0746 5.146 45.4713 5.23667 45.834 5.418C46.208 5.588 46.5083 5.877 46.735 6.285C46.9616 6.68167 47.075 7.22567 47.075 7.917V10.841ZM49.3815 13.051C49.3815 12.9377 49.3872 12.8187 49.3985 12.694C49.4099 12.558 49.4325 12.4333 49.4665 12.32C49.9199 12.32 50.2259 12.218 50.3845 12.014C50.5545 11.7987 50.6395 11.4077 50.6395 10.841V3.225C50.6395 2.953 50.6112 2.732 50.5545 2.562C50.5092 2.38067 50.3959 2.24467 50.2145 2.154C50.0332 2.06333 49.7499 2.018 49.3645 2.018C49.3645 1.89333 49.3759 1.78 49.3985 1.678C49.4212 1.576 49.4609 1.47967 49.5175 1.389C49.6875 1.389 49.9255 1.36067 50.2315 1.304C50.5489 1.24733 50.8549 1.17367 51.1495 1.083C51.4442 0.992333 51.6595 0.901666 51.7955 0.811C51.8975 0.844999 51.9825 0.912999 52.0505 1.015C52.1299 1.117 52.1695 1.27567 52.1695 1.491V10.841C52.1695 11.4077 52.2432 11.7987 52.3905 12.014C52.5492 12.218 52.8099 12.32 53.1725 12.32C53.2065 12.4333 53.2292 12.5637 53.2405 12.711C53.2519 12.8583 53.2575 12.9717 53.2575 13.051C52.9629 13.0283 52.6512 13.0113 52.3225 13C51.9939 13 51.6652 13 51.3365 13C51.1212 13 50.8945 13 50.6565 13C50.4299 13.0113 50.2089 13.017 49.9935 13.017C49.7782 13.0283 49.5742 13.0397 49.3815 13.051ZM55.4335 13.153C55.2409 12.8583 55.0085 12.5297 54.7365 12.167C54.4645 11.8043 54.1699 11.4303 53.8525 11.045C53.5352 10.6483 53.2065 10.2687 52.8665 9.906C52.5379 9.532 52.2205 9.19767 51.9145 8.903L53.4275 7.509C53.8129 7.15767 54.0905 6.87433 54.2605 6.659C54.4305 6.43233 54.5155 6.26233 54.5155 6.149C54.5155 6.05833 54.4702 5.99033 54.3795 5.945C54.3002 5.89967 54.1812 5.877 54.0225 5.877C53.9885 5.76367 53.9602 5.65033 53.9375 5.537C53.9262 5.42367 53.9205 5.30467 53.9205 5.18C54.1699 5.19133 54.3965 5.20267 54.6005 5.214C54.8159 5.214 55.0142 5.214 55.1955 5.214C55.3769 5.214 55.5412 5.214 55.6885 5.214C55.8812 5.214 56.1192 5.214 56.4025 5.214C56.6859 5.20267 56.9805 5.19133 57.2865 5.18C57.2865 5.29333 57.2752 5.418 57.2525 5.554C57.2412 5.67867 57.2129 5.792 57.1675 5.894C56.9522 5.894 56.7369 5.928 56.5215 5.996C56.3175 6.064 56.0965 6.17167 55.8585 6.319C55.6319 6.46633 55.3769 6.67033 55.0935 6.931L53.2235 8.631L53.1895 8.087C53.5862 8.495 53.9942 8.937 54.4135 9.413C54.8329 9.87767 55.3372 10.4727 55.9265 11.198C56.1532 11.47 56.3459 11.6797 56.5045 11.827C56.6745 11.9743 56.8502 12.082 57.0315 12.15C57.2129 12.2067 57.4339 12.2463 57.6945 12.269C57.6945 12.4277 57.6889 12.5693 57.6775 12.694C57.6662 12.8073 57.6435 12.9093 57.6095 13C57.3375 13 57.0825 13.0057 56.8445 13.017C56.6065 13.0283 56.3742 13.0397 56.1475 13.051C55.9209 13.0737 55.6829 13.1077 55.4335 13.153ZM62.6972 5.061C63.0258 5.061 63.3092 5.08933 63.5472 5.146C63.7965 5.20267 64.0628 5.27633 64.3462 5.367V6.676C64.1195 6.438 63.8702 6.23967 63.5982 6.081C63.3375 5.92233 63.0088 5.843 62.6122 5.843C62.3742 5.843 62.1135 5.894 61.8302 5.996C61.5582 6.08667 61.2918 6.251 61.0312 6.489C60.7705 6.727 60.5552 7.06133 60.3852 7.492C60.2265 7.92267 60.1472 8.478 60.1472 9.158C60.1472 9.88333 60.2548 10.4613 60.4702 10.892C60.6855 11.3113 60.9405 11.6173 61.2352 11.81C61.5298 11.9913 61.8018 12.082 62.0512 12.082C62.3912 12.082 62.7142 11.98 63.0202 11.776C63.3375 11.5607 63.5982 11.215 63.8022 10.739C64.0062 10.263 64.1082 9.62833 64.1082 8.835L64.6012 10.637C64.4538 10.9997 64.3235 11.2773 64.2102 11.47C64.1082 11.6627 64.0288 11.8043 63.9722 11.895C63.8702 12.065 63.7058 12.2463 63.4792 12.439C63.2638 12.6317 62.9975 12.8017 62.6802 12.949C62.3742 13.085 62.0285 13.153 61.6432 13.153C60.9858 13.153 60.4192 13.0227 59.9432 12.762C59.4672 12.49 59.0988 12.0763 58.8382 11.521C58.5888 10.9657 58.4642 10.2517 58.4642 9.379C58.4642 8.58567 58.6398 7.866 58.9912 7.22C59.3425 6.56267 59.8355 6.04133 60.4702 5.656C61.1048 5.25933 61.8472 5.061 62.6972 5.061ZM65.6382 10.688C65.6382 10.9487 65.6608 11.1697 65.7062 11.351C65.7515 11.521 65.8478 11.6457 65.9952 11.725C66.1538 11.8043 66.3862 11.844 66.6922 11.844C66.6922 11.9573 66.6865 12.0877 66.6752 12.235C66.6638 12.371 66.6355 12.5013 66.5902 12.626C66.3068 12.6373 65.9782 12.694 65.6042 12.796C65.2302 12.8867 64.9128 13.0057 64.6522 13.153C64.5388 13.0963 64.4368 13.017 64.3462 12.915C64.2668 12.8017 64.2272 12.5523 64.2272 12.167C64.2272 11.9403 64.2442 11.742 64.2782 11.572C64.3235 11.3907 64.3858 11.096 64.4652 10.688H65.6382ZM65.6382 3.225V10.841H64.1082V3.225H65.6382ZM65.2642 0.811C65.3662 0.844999 65.4512 0.912999 65.5192 1.015C65.5985 1.117 65.6382 1.27567 65.6382 1.491V3.854H64.1082V3.225C64.1082 2.953 64.0798 2.732 64.0232 2.562C63.9778 2.38067 63.8645 2.24467 63.6832 2.154C63.5018 2.06333 63.2185 2.018 62.8332 2.018C62.8332 1.89333 62.8445 1.78 62.8672 1.678C62.8898 1.576 62.9295 1.47967 62.9862 1.389C63.1562 1.389 63.3942 1.36067 63.7002 1.304C64.0062 1.24733 64.3065 1.17367 64.6012 1.083C64.9072 0.992333 65.1282 0.901666 65.2642 0.811ZM68.0089 13.051C68.0089 12.9377 68.0145 12.8187 68.0259 12.694C68.0372 12.558 68.0599 12.4333 68.0939 12.32C68.5472 12.32 68.8532 12.218 69.0119 12.014C69.1819 11.7987 69.2669 11.4077 69.2669 10.841V7.475C69.2669 7.203 69.2385 6.982 69.1819 6.812C69.1365 6.63067 69.0232 6.49467 68.8419 6.404C68.6605 6.31333 68.3772 6.268 67.9919 6.268C67.9919 6.14333 68.0032 6.03 68.0259 5.928C68.0485 5.826 68.0882 5.72967 68.1449 5.639C68.3149 5.639 68.5529 5.61067 68.8589 5.554C69.1762 5.49733 69.4822 5.42367 69.7769 5.333C70.0715 5.24233 70.2869 5.15167 70.4229 5.061C70.5249 5.095 70.6099 5.163 70.6779 5.265C70.7572 5.367 70.7969 5.52567 70.7969 5.741V10.841C70.7969 11.4077 70.8705 11.7987 71.0179 12.014C71.1765 12.218 71.4372 12.32 71.7999 12.32C71.8339 12.4333 71.8565 12.5637 71.8679 12.711C71.8792 12.8583 71.8849 12.9717 71.8849 13.051C71.6922 13.0397 71.4882 13.0283 71.2729 13.017C71.0575 13.017 70.8365 13.0113 70.6099 13C70.3945 13 70.1792 13 69.9639 13C69.7485 13 69.5219 13 69.2839 13C69.0572 13.0113 68.8362 13.017 68.6209 13.017C68.4055 13.0283 68.2015 13.0397 68.0089 13.051ZM69.8959 3.14C69.6125 3.14 69.3745 3.04367 69.1819 2.851C68.9892 2.65833 68.8929 2.426 68.8929 2.154C68.8929 1.848 68.9949 1.59867 69.1989 1.406C69.4029 1.21333 69.6352 1.117 69.8959 1.117C70.2019 1.117 70.4455 1.21333 70.6269 1.406C70.8195 1.59867 70.9159 1.848 70.9159 2.154C70.9159 2.41467 70.8139 2.647 70.6099 2.851C70.4172 3.04367 70.1792 3.14 69.8959 3.14ZM74.3802 9.362V7.475C74.3802 7.203 74.3518 6.982 74.2952 6.812C74.2385 6.642 74.1195 6.51167 73.9382 6.421C73.7568 6.33033 73.4792 6.27933 73.1052 6.268C73.1052 6.14333 73.1165 6.03 73.1392 5.928C73.1618 5.826 73.2015 5.72967 73.2582 5.639C73.6095 5.61633 74.0118 5.54833 74.4652 5.435C74.9185 5.32167 75.2755 5.197 75.5362 5.061C75.6382 5.095 75.7232 5.16867 75.7912 5.282C75.8705 5.384 75.9102 5.55967 75.9102 5.809L74.3802 9.362ZM80.9422 10.841C80.9422 11.4303 81.0215 11.827 81.1802 12.031C81.3502 12.2237 81.6052 12.32 81.9452 12.32C81.9792 12.422 82.0018 12.5297 82.0132 12.643C82.0245 12.7563 82.0302 12.8923 82.0302 13.051C81.7808 13.0283 81.4975 13.0113 81.1802 13C80.8628 13 80.5285 13 80.1772 13C79.9505 13 79.7125 13 79.4632 13C79.2138 13.0113 78.9758 13.017 78.7492 13.017C78.5338 13.0283 78.3355 13.0397 78.1542 13.051C78.1542 12.8923 78.1598 12.7563 78.1712 12.643C78.1825 12.5183 78.2052 12.4107 78.2392 12.32C78.6472 12.32 78.9418 12.218 79.1232 12.014C79.3158 11.7987 79.4122 11.4077 79.4122 10.841V8.257C79.4122 7.45233 79.2648 6.90833 78.9702 6.625C78.6755 6.33033 78.2958 6.183 77.8312 6.183C77.5365 6.183 77.2418 6.27933 76.9472 6.472C76.6525 6.65333 76.4032 6.95367 76.1992 7.373C76.0065 7.781 75.9102 8.33067 75.9102 9.022V10.841C75.9102 11.4077 75.9952 11.7987 76.1652 12.014C76.3352 12.218 76.6412 12.32 77.0832 12.32C77.1172 12.422 77.1398 12.5297 77.1512 12.643C77.1625 12.7563 77.1682 12.8923 77.1682 13.051C77.0095 13.0397 76.8168 13.0283 76.5902 13.017C76.3635 13.017 76.1255 13.0113 75.8762 13C75.6268 13 75.3832 13 75.1452 13C74.9185 13 74.6805 13 74.4312 13C74.1818 13.0113 73.9438 13.017 73.7172 13.017C73.4905 13.0283 73.2922 13.0397 73.1222 13.051C73.1222 12.8923 73.1278 12.7563 73.1392 12.643C73.1505 12.5183 73.1732 12.4107 73.2072 12.32C73.6492 12.32 73.9552 12.218 74.1252 12.014C74.2952 11.7987 74.3802 11.4077 74.3802 10.841V7.475L75.9102 5.809C75.9102 5.945 75.9045 6.098 75.8932 6.268C75.8818 6.438 75.8478 6.61933 75.7912 6.812C75.8252 6.75533 75.8592 6.693 75.8932 6.625C75.9272 6.54567 75.9782 6.46067 76.0462 6.37C76.2388 6.10933 76.5448 5.843 76.9642 5.571C77.3948 5.28767 77.9105 5.146 78.5112 5.146C78.9418 5.146 79.3385 5.23667 79.7012 5.418C80.0752 5.588 80.3755 5.877 80.6022 6.285C80.8288 6.68167 80.9422 7.22567 80.9422 7.917V10.841Z" fill="#212121"/>
<defs>
<clipPath id="clip0_1_253">
<rect width="14" height="14" fill="white" transform="translate(1 1)"/>
</clipPath>
</defs>
</svg>
