<svg width="202" height="21" viewBox="0 0 202 21" fill="none" xmlns="http://www.w3.org/2000/svg">
<g clip-path="url(#clip0_1_259)">
<path d="M15 3.902C14.4843 4.12989 13.9313 4.28466 13.3503 4.35389C13.943 3.99844 14.3988 3.43533 14.6127 2.76566C14.0589 3.09466 13.4437 3.33344 12.7896 3.46178C12.2653 2.90411 11.5179 2.55566 10.6927 2.55566C9.10679 2.55566 7.82035 3.84055 7.82035 5.42722C7.82035 5.652 7.84524 5.87133 7.89502 6.08211C5.50724 5.96155 3.3909 4.81822 1.97457 3.08144C1.72724 3.50533 1.58568 3.99922 1.58568 4.52422C1.58568 5.52133 2.09279 6.40022 2.86357 6.91511C2.39302 6.90033 1.94968 6.77122 1.56235 6.55655C1.56235 6.56822 1.56235 6.57989 1.56235 6.59233C1.56235 7.98378 2.55246 9.14578 3.86613 9.40866C3.62502 9.474 3.37146 9.509 3.10935 9.509C2.92502 9.509 2.74457 9.49266 2.56957 9.45844C2.93435 10.6002 3.99602 11.4301 5.25213 11.4534C4.26979 12.2234 3.03157 12.6823 1.68602 12.6823C1.45346 12.6823 1.22557 12.6683 1.00079 12.6411C2.27168 13.457 3.78135 13.9314 5.40379 13.9314C10.6865 13.9314 13.5759 9.55489 13.5759 5.76011C13.5759 5.63489 13.5728 5.51044 13.5666 5.38755C14.1273 4.98466 14.615 4.47833 15 3.902Z" fill="black"/>
</g>
<path d="M27.366 2.256C26.822 2.256 26.4083 2.34667 26.125 2.528C25.853 2.698 25.6547 2.936 25.53 3.242C25.4167 3.548 25.3203 3.91067 25.241 4.33C25.1163 4.33 24.9747 4.31867 24.816 4.296C24.6573 4.27333 24.527 4.23367 24.425 4.177C24.5157 3.701 24.5837 3.225 24.629 2.749C24.6743 2.273 24.697 1.84233 24.697 1.457C25.0143 1.46833 25.3997 1.47967 25.853 1.491C26.3177 1.50233 26.8163 1.508 27.349 1.508C27.893 1.508 28.454 1.508 29.032 1.508C29.61 1.508 30.171 1.508 30.715 1.508C31.2703 1.508 31.7803 1.50233 32.245 1.491C32.7097 1.47967 33.095 1.46833 33.401 1.457C33.3897 1.865 33.3897 2.28433 33.401 2.715C33.4237 3.14567 33.4577 3.633 33.503 4.177C33.3897 4.23367 33.2593 4.279 33.112 4.313C32.976 4.33567 32.823 4.34133 32.653 4.33C32.6417 3.66133 32.483 3.15133 32.177 2.8C31.8823 2.43733 31.4007 2.256 30.732 2.256H27.366ZM28.233 1.967H29.831V10.841C29.831 11.215 29.865 11.5097 29.933 11.725C30.001 11.929 30.1313 12.0763 30.324 12.167C30.5167 12.2463 30.7943 12.2973 31.157 12.32C31.191 12.4107 31.2137 12.5183 31.225 12.643C31.2363 12.7563 31.242 12.8923 31.242 13.051C30.8793 13.0283 30.5053 13.0113 30.12 13C29.746 13 29.3777 13 29.015 13C28.777 13 28.522 13 28.25 13C27.9893 13.0113 27.7343 13.017 27.485 13.017C27.2357 13.0283 27.0033 13.0397 26.788 13.051C26.788 12.8923 26.7937 12.7563 26.805 12.643C26.8163 12.5183 26.839 12.4107 26.873 12.32C27.2357 12.2973 27.5133 12.2463 27.706 12.167C27.91 12.0763 28.046 11.929 28.114 11.725C28.1933 11.5097 28.233 11.215 28.233 10.841V1.967ZM36.7527 13.153C36.56 12.609 36.3673 12.0763 36.1747 11.555C35.9933 11.0223 35.8007 10.501 35.5967 9.991C35.404 9.46967 35.2057 8.954 35.0017 8.444C34.809 7.934 34.6107 7.424 34.4067 6.914C34.282 6.59667 34.1517 6.37 34.0157 6.234C33.891 6.098 33.704 5.99033 33.4547 5.911C33.4093 5.79767 33.381 5.673 33.3697 5.537C33.3583 5.401 33.3527 5.282 33.3527 5.18C33.5793 5.19133 33.8173 5.20267 34.0667 5.214C34.3273 5.214 34.6447 5.214 35.0187 5.214C35.3927 5.214 35.727 5.20833 36.0217 5.197C36.3163 5.18567 36.6053 5.17433 36.8887 5.163C36.8887 5.27633 36.883 5.40667 36.8717 5.554C36.8603 5.70133 36.8377 5.82033 36.8037 5.911C36.4863 5.945 36.2597 6.00167 36.1237 6.081C35.999 6.16033 35.9367 6.268 35.9367 6.404C35.948 6.54 35.9933 6.71567 36.0727 6.931C36.3333 7.58833 36.6053 8.308 36.8887 9.09C37.172 9.872 37.427 10.5973 37.6537 11.266L37.4327 11.283L39.7787 5.214C39.8693 5.19133 39.977 5.17433 40.1017 5.163C40.2263 5.15167 40.3453 5.146 40.4587 5.146C40.8327 6.00733 41.2407 6.982 41.6827 8.07C42.136 9.158 42.5723 10.2403 42.9917 11.317H42.7537L43.8247 8.104C44.006 7.54867 44.0853 7.12367 44.0627 6.829C44.0513 6.523 43.9663 6.302 43.8077 6.166C43.649 6.03 43.428 5.945 43.1447 5.911C43.0993 5.78633 43.0597 5.66167 43.0257 5.537C43.003 5.401 42.9917 5.27633 42.9917 5.163C43.207 5.17433 43.4507 5.18567 43.7227 5.197C43.9947 5.20833 44.2553 5.214 44.5047 5.214C44.8107 5.214 45.0883 5.20833 45.3377 5.197C45.587 5.18567 45.808 5.17433 46.0007 5.163C46.0007 5.31033 45.9893 5.44067 45.9667 5.554C45.9553 5.66733 45.9213 5.78633 45.8647 5.911C45.6947 5.95633 45.5473 6.04133 45.4227 6.166C45.3093 6.27933 45.1903 6.48333 45.0657 6.778C44.9523 7.07267 44.7993 7.49767 44.6067 8.053L42.8897 13C42.8217 13.034 42.748 13.0623 42.6687 13.085C42.5893 13.1077 42.5043 13.1247 42.4137 13.136C42.323 13.1473 42.221 13.153 42.1077 13.153C41.847 12.473 41.5637 11.776 41.2577 11.062C40.963 10.3367 40.6683 9.62267 40.3737 8.92C40.079 8.21733 39.79 7.55433 39.5067 6.931L40.0337 6.642L37.5007 13C37.444 13.034 37.3817 13.0623 37.3137 13.085C37.2457 13.1077 37.1663 13.1247 37.0757 13.136C36.985 13.1473 36.8773 13.153 36.7527 13.153ZM46.8917 13.051C46.8917 12.9377 46.8974 12.8187 46.9087 12.694C46.92 12.558 46.9427 12.4333 46.9767 12.32C47.43 12.32 47.736 12.218 47.8947 12.014C48.0647 11.7987 48.1497 11.4077 48.1497 10.841V7.475C48.1497 7.203 48.1214 6.982 48.0647 6.812C48.0194 6.63067 47.906 6.49467 47.7247 6.404C47.5434 6.31333 47.26 6.268 46.8747 6.268C46.8747 6.14333 46.886 6.03 46.9087 5.928C46.9314 5.826 46.971 5.72967 47.0277 5.639C47.1977 5.639 47.4357 5.61067 47.7417 5.554C48.059 5.49733 48.365 5.42367 48.6597 5.333C48.9544 5.24233 49.1697 5.15167 49.3057 5.061C49.4077 5.095 49.4927 5.163 49.5607 5.265C49.64 5.367 49.6797 5.52567 49.6797 5.741V10.841C49.6797 11.4077 49.7534 11.7987 49.9007 12.014C50.0594 12.218 50.32 12.32 50.6827 12.32C50.7167 12.4333 50.7394 12.5637 50.7507 12.711C50.762 12.8583 50.7677 12.9717 50.7677 13.051C50.575 13.0397 50.371 13.0283 50.1557 13.017C49.9404 13.017 49.7194 13.0113 49.4927 13C49.2774 13 49.062 13 48.8467 13C48.6314 13 48.4047 13 48.1667 13C47.94 13.0113 47.719 13.017 47.5037 13.017C47.2884 13.0283 47.0844 13.0397 46.8917 13.051ZM48.7787 3.14C48.4954 3.14 48.2574 3.04367 48.0647 2.851C47.872 2.65833 47.7757 2.426 47.7757 2.154C47.7757 1.848 47.8777 1.59867 48.0817 1.406C48.2857 1.21333 48.518 1.117 48.7787 1.117C49.0847 1.117 49.3284 1.21333 49.5097 1.406C49.7024 1.59867 49.7987 1.848 49.7987 2.154C49.7987 2.41467 49.6967 2.647 49.4927 2.851C49.3 3.04367 49.062 3.14 48.7787 3.14ZM54.912 13.153C54.2433 13.153 53.7446 12.983 53.416 12.643C53.0986 12.2917 52.94 11.7307 52.94 10.96V6.353C52.77 6.29633 52.5943 6.251 52.413 6.217C52.2316 6.17167 51.9993 6.14333 51.716 6.132C51.716 5.98467 51.7273 5.86 51.75 5.758C51.7726 5.64467 51.8123 5.52 51.869 5.384H52.94V3.14C53.1666 3.08333 53.3876 2.99267 53.603 2.868C53.8296 2.74333 54.028 2.60733 54.198 2.46C54.3113 2.50533 54.385 2.57333 54.419 2.664C54.453 2.75467 54.47 2.98133 54.47 3.344V5.384H56.68C56.68 5.49733 56.6686 5.622 56.646 5.758C56.6233 5.88267 56.5836 6.00733 56.527 6.132C56.119 6.14333 55.745 6.17167 55.405 6.217C55.065 6.251 54.7533 6.29633 54.47 6.353V10.603C54.47 10.977 54.5096 11.2887 54.589 11.538C54.6683 11.776 54.7816 11.9517 54.929 12.065C55.0763 12.1783 55.252 12.235 55.456 12.235C55.694 12.235 55.898 12.201 56.068 12.133C56.2493 12.065 56.4193 11.963 56.578 11.827C56.7253 11.997 56.8103 12.184 56.833 12.388C56.6516 12.6033 56.374 12.7847 56 12.932C55.6373 13.0793 55.2746 13.153 54.912 13.153ZM60.7059 13.153C60.0373 13.153 59.5386 12.983 59.2099 12.643C58.8926 12.2917 58.7339 11.7307 58.7339 10.96V6.353C58.5639 6.29633 58.3883 6.251 58.2069 6.217C58.0256 6.17167 57.7933 6.14333 57.5099 6.132C57.5099 5.98467 57.5213 5.86 57.5439 5.758C57.5666 5.64467 57.6063 5.52 57.6629 5.384H58.7339V3.14C58.9606 3.08333 59.1816 2.99267 59.3969 2.868C59.6236 2.74333 59.8219 2.60733 59.9919 2.46C60.1053 2.50533 60.1789 2.57333 60.2129 2.664C60.2469 2.75467 60.2639 2.98133 60.2639 3.344V5.384H62.4739C62.4739 5.49733 62.4626 5.622 62.4399 5.758C62.4173 5.88267 62.3776 6.00733 62.3209 6.132C61.9129 6.14333 61.5389 6.17167 61.1989 6.217C60.8589 6.251 60.5473 6.29633 60.2639 6.353V10.603C60.2639 10.977 60.3036 11.2887 60.3829 11.538C60.4623 11.776 60.5756 11.9517 60.7229 12.065C60.8703 12.1783 61.0459 12.235 61.2499 12.235C61.4879 12.235 61.6919 12.201 61.8619 12.133C62.0433 12.065 62.2133 11.963 62.3719 11.827C62.5193 11.997 62.6043 12.184 62.6269 12.388C62.4456 12.6033 62.1679 12.7847 61.7939 12.932C61.4313 13.0793 61.0686 13.153 60.7059 13.153ZM67.2479 13.153C66.4432 13.153 65.7745 12.9717 65.2419 12.609C64.7092 12.2463 64.3069 11.759 64.0349 11.147C63.7742 10.5237 63.6439 9.84367 63.6439 9.107C63.6439 8.38167 63.7855 7.713 64.0689 7.101C64.3522 6.489 64.7545 5.996 65.2759 5.622C65.8085 5.248 66.4375 5.061 67.1629 5.061C67.8995 5.061 68.4889 5.21967 68.9309 5.537C69.3842 5.85433 69.7185 6.27933 69.9339 6.812C70.1605 7.34467 70.2965 7.934 70.3419 8.58C70.2965 8.80667 70.2115 8.99933 70.0869 9.158C69.8942 9.158 69.6052 9.158 69.2199 9.158C68.8345 9.158 68.3982 9.16367 67.9109 9.175C67.4235 9.175 66.9249 9.18633 66.4149 9.209C65.9049 9.22033 65.4232 9.23733 64.9699 9.26V8.393H68.5739C68.5739 7.645 68.4379 7.03867 68.1659 6.574C67.8939 6.10933 67.5085 5.877 67.0099 5.877C66.7379 5.877 66.4715 5.962 66.2109 6.132C65.9502 6.29067 65.7349 6.57967 65.5649 6.999C65.3949 7.407 65.3099 7.99067 65.3099 8.75C65.3099 9.30533 65.3779 9.84933 65.5139 10.382C65.6612 10.9033 65.9105 11.3397 66.2619 11.691C66.6245 12.031 67.1345 12.201 67.7919 12.201C68.1659 12.201 68.5342 12.116 68.8969 11.946C69.2595 11.776 69.5825 11.5323 69.8659 11.215C69.9565 11.2603 70.0415 11.3397 70.1209 11.453C70.2115 11.555 70.2625 11.6513 70.2739 11.742C69.8885 12.252 69.4409 12.6147 68.9309 12.83C68.4322 13.0453 67.8712 13.153 67.2479 13.153ZM74.4326 10.501C74.4326 10.9883 74.4836 11.3623 74.5856 11.623C74.6876 11.8723 74.852 12.048 75.0786 12.15C75.3053 12.2407 75.5943 12.2973 75.9456 12.32C75.9796 12.4107 76.0023 12.5183 76.0136 12.643C76.025 12.7563 76.0306 12.8923 76.0306 13.051C75.8606 13.0397 75.6566 13.0283 75.4186 13.017C75.192 13.017 74.9483 13.0113 74.6876 13C74.427 13 74.1606 13 73.8886 13C73.492 13 73.0726 13 72.6306 13C72.2 13.0113 71.8713 13.0283 71.6446 13.051C71.6446 12.8923 71.6503 12.7563 71.6616 12.643C71.673 12.5183 71.6956 12.4107 71.7296 12.32C72.0356 12.2973 72.2736 12.2463 72.4436 12.167C72.6136 12.0763 72.7326 11.929 72.8006 11.725C72.8686 11.5097 72.9026 11.215 72.9026 10.841V9.141H74.4326V10.501ZM74.4326 8.019V9.362H72.9026V7.475L74.4326 5.809C74.4326 6.19433 74.3986 6.54567 74.3306 6.863C74.2626 7.169 74.2003 7.475 74.1436 7.781L74.4326 8.019ZM74.0586 7.883C74.1833 7.56567 74.2796 7.305 74.3476 7.101C74.4156 6.897 74.4893 6.727 74.5686 6.591C74.818 6.19433 75.1126 5.86567 75.4526 5.605C75.7926 5.34433 76.1836 5.214 76.6256 5.214C77.0563 5.214 77.4473 5.35 77.7986 5.622C77.776 5.80333 77.7533 6.013 77.7306 6.251C77.708 6.489 77.691 6.727 77.6796 6.965C77.6796 7.203 77.6796 7.424 77.6796 7.628C77.5776 7.662 77.436 7.696 77.2546 7.73C77.0846 7.764 76.9033 7.781 76.7106 7.781C76.688 7.237 76.5973 6.88 76.4386 6.71C76.2913 6.54 76.1043 6.455 75.8776 6.455C75.685 6.455 75.4753 6.56833 75.2486 6.795C75.022 7.01033 74.8293 7.29933 74.6706 7.662C74.512 8.02467 74.4326 8.427 74.4326 8.869L74.0586 7.883ZM72.9026 9.362V7.475C72.9026 7.203 72.8743 6.982 72.8176 6.812C72.761 6.642 72.642 6.51167 72.4606 6.421C72.2793 6.33033 72.0016 6.27933 71.6276 6.268C71.6276 6.14333 71.639 6.03 71.6616 5.928C71.6843 5.826 71.724 5.72967 71.7806 5.639C72.132 5.61633 72.5343 5.54833 72.9876 5.435C73.441 5.32167 73.798 5.197 74.0586 5.061C74.1606 5.095 74.2456 5.16867 74.3136 5.282C74.393 5.384 74.4326 5.55967 74.4326 5.809L72.9026 9.362Z" fill="#212121"/>
<defs>
<clipPath id="clip0_1_259">
<rect width="14" height="14" fill="white" transform="translate(1 1)"/>
</clipPath>
</defs>
</svg>
